<svg width="193" height="26" viewBox="0 0 193 26" fill="none" xmlns="http://www.w3.org/2000/svg">
<path d="M0.032 10.624C0.032 8.992 0.4 7.528 1.136 6.232C1.872 4.92 2.872 3.896 4.136 3.16C5.416 2.424 6.832 2.056 8.384 2.056C10.208 2.056 11.8 2.496 13.16 3.376C14.52 4.256 15.512 5.504 16.136 7.12H13.52C13.056 6.112 12.384 5.336 11.504 4.792C10.64 4.248 9.6 3.976 8.384 3.976C7.216 3.976 6.168 4.248 5.24 4.792C4.312 5.336 3.584 6.112 3.056 7.12C2.528 8.112 2.264 9.28 2.264 10.624C2.264 11.952 2.528 13.12 3.056 14.128C3.584 15.12 4.312 15.888 5.24 16.432C6.168 16.976 7.216 17.248 8.384 17.248C9.6 17.248 10.64 16.984 11.504 16.456C12.384 15.912 13.056 15.136 13.52 14.128H16.136C15.512 15.728 14.52 16.968 13.16 17.848C11.8 18.712 10.208 19.144 8.384 19.144C6.832 19.144 5.416 18.784 4.136 18.064C2.872 17.328 1.872 16.312 1.136 15.016C0.4 13.72 0.032 12.256 0.032 10.624ZM18.5711 12.376C18.5711 11.032 18.8431 9.856 19.3871 8.848C19.9311 7.824 20.6751 7.032 21.6191 6.472C22.5791 5.912 23.6431 5.632 24.8111 5.632C25.9631 5.632 26.9631 5.88 27.8111 6.376C28.6591 6.872 29.2911 7.496 29.7071 8.248V5.848H31.9151V19H29.7071V16.552C29.2751 17.32 28.6271 17.96 27.7631 18.472C26.9151 18.968 25.9231 19.216 24.7871 19.216C23.6191 19.216 22.5631 18.928 21.6191 18.352C20.6751 17.776 19.9311 16.968 19.3871 15.928C18.8431 14.888 18.5711 13.704 18.5711 12.376ZM29.7071 12.4C29.7071 11.408 29.5071 10.544 29.1071 9.808C28.7071 9.072 28.1631 8.512 27.4751 8.128C26.8031 7.728 26.0591 7.528 25.2431 7.528C24.4271 7.528 23.6831 7.72 23.0111 8.104C22.3391 8.488 21.8031 9.048 21.4031 9.784C21.0031 10.52 20.8031 11.384 20.8031 12.376C20.8031 13.384 21.0031 14.264 21.4031 15.016C21.8031 15.752 22.3391 16.32 23.0111 16.72C23.6831 17.104 24.4271 17.296 25.2431 17.296C26.0591 17.296 26.8031 17.104 27.4751 16.72C28.1631 16.32 28.7071 15.752 29.1071 15.016C29.5071 14.264 29.7071 13.392 29.7071 12.4ZM37.7898 8.272C38.2218 7.52 38.8618 6.896 39.7098 6.4C40.5738 5.888 41.5738 5.632 42.7098 5.632C43.8778 5.632 44.9338 5.912 45.8778 6.472C46.8378 7.032 47.5898 7.824 48.1338 8.848C48.6778 9.856 48.9498 11.032 48.9498 12.376C48.9498 13.704 48.6778 14.888 48.1338 15.928C47.5898 16.968 46.8378 17.776 45.8778 18.352C44.9338 18.928 43.8778 19.216 42.7098 19.216C41.5898 19.216 40.5978 18.968 39.7338 18.472C38.8858 17.96 38.2378 17.328 37.7898 16.576V25.24H35.6058V5.848H37.7898V8.272ZM46.7178 12.376C46.7178 11.384 46.5178 10.52 46.1178 9.784C45.7178 9.048 45.1738 8.488 44.4858 8.104C43.8138 7.72 43.0698 7.528 42.2538 7.528C41.4538 7.528 40.7098 7.728 40.0218 8.128C39.3498 8.512 38.8058 9.08 38.3898 9.832C37.9898 10.568 37.7898 11.424 37.7898 12.4C37.7898 13.392 37.9898 14.264 38.3898 15.016C38.8058 15.752 39.3498 16.32 40.0218 16.72C40.7098 17.104 41.4538 17.296 42.2538 17.296C43.0698 17.296 43.8138 17.104 44.4858 16.72C45.1738 16.32 45.7178 15.752 46.1178 15.016C46.5178 14.264 46.7178 13.384 46.7178 12.376ZM52.9526 3.712C52.5366 3.712 52.1846 3.568 51.8966 3.28C51.6086 2.992 51.4646 2.64 51.4646 2.224C51.4646 1.808 51.6086 1.456 51.8966 1.168C52.1846 0.879999 52.5366 0.735999 52.9526 0.735999C53.3526 0.735999 53.6886 0.879999 53.9606 1.168C54.2486 1.456 54.3926 1.808 54.3926 2.224C54.3926 2.64 54.2486 2.992 53.9606 3.28C53.6886 3.568 53.3526 3.712 52.9526 3.712ZM54.0086 5.848V19H51.8246V5.848H54.0086ZM60.3948 7.648V15.4C60.3948 16.04 60.5308 16.496 60.8028 16.768C61.0748 17.024 61.5468 17.152 62.2188 17.152H63.8268V19H61.8588C60.6428 19 59.7308 18.72 59.1228 18.16C58.5148 17.6 58.2108 16.68 58.2108 15.4V7.648H56.5068V5.848H58.2108V2.536H60.3948V5.848H63.8268V7.648H60.3948ZM65.657 12.376C65.657 11.032 65.929 9.856 66.473 8.848C67.017 7.824 67.761 7.032 68.705 6.472C69.665 5.912 70.729 5.632 71.897 5.632C73.049 5.632 74.049 5.88 74.897 6.376C75.745 6.872 76.377 7.496 76.793 8.248V5.848H79.001V19H76.793V16.552C76.361 17.32 75.713 17.96 74.849 18.472C74.001 18.968 73.009 19.216 71.873 19.216C70.705 19.216 69.649 18.928 68.705 18.352C67.761 17.776 67.017 16.968 66.473 15.928C65.929 14.888 65.657 13.704 65.657 12.376ZM76.793 12.4C76.793 11.408 76.593 10.544 76.193 9.808C75.793 9.072 75.249 8.512 74.561 8.128C73.889 7.728 73.145 7.528 72.329 7.528C71.513 7.528 70.769 7.72 70.097 8.104C69.425 8.488 68.889 9.048 68.489 9.784C68.089 10.52 67.889 11.384 67.889 12.376C67.889 13.384 68.089 14.264 68.489 15.016C68.889 15.752 69.425 16.32 70.097 16.72C70.769 17.104 71.513 17.296 72.329 17.296C73.145 17.296 73.889 17.104 74.561 16.72C75.249 16.32 75.793 15.752 76.193 15.016C76.593 14.264 76.793 13.392 76.793 12.4ZM84.8758 1.24V19H82.6918V1.24H84.8758ZM94.1804 10.624C94.1804 8.992 94.5484 7.528 95.2844 6.232C96.0204 4.92 97.0204 3.896 98.2844 3.16C99.5644 2.424 100.98 2.056 102.532 2.056C104.356 2.056 105.948 2.496 107.308 3.376C108.668 4.256 109.66 5.504 110.284 7.12H107.668C107.204 6.112 106.532 5.336 105.652 4.792C104.788 4.248 103.748 3.976 102.532 3.976C101.364 3.976 100.316 4.248 99.3884 4.792C98.4604 5.336 97.7324 6.112 97.2044 7.12C96.6764 8.112 96.4124 9.28 96.4124 10.624C96.4124 11.952 96.6764 13.12 97.2044 14.128C97.7324 15.12 98.4604 15.888 99.3884 16.432C100.316 16.976 101.364 17.248 102.532 17.248C103.748 17.248 104.788 16.984 105.652 16.456C106.532 15.912 107.204 15.136 107.668 14.128H110.284C109.66 15.728 108.668 16.968 107.308 17.848C105.948 18.712 104.356 19.144 102.532 19.144C100.98 19.144 99.5644 18.784 98.2844 18.064C97.0204 17.328 96.0204 16.312 95.2844 15.016C94.5484 13.72 94.1804 12.256 94.1804 10.624ZM114.664 3.712C114.248 3.712 113.896 3.568 113.608 3.28C113.32 2.992 113.176 2.64 113.176 2.224C113.176 1.808 113.32 1.456 113.608 1.168C113.896 0.879999 114.248 0.735999 114.664 0.735999C115.064 0.735999 115.4 0.879999 115.672 1.168C115.96 1.456 116.104 1.808 116.104 2.224C116.104 2.64 115.96 2.992 115.672 3.28C115.4 3.568 115.064 3.712 114.664 3.712ZM115.72 5.848V19H113.536V5.848H115.72ZM125.85 5.608C127.45 5.608 128.746 6.096 129.738 7.072C130.73 8.032 131.226 9.424 131.226 11.248V19H129.066V11.56C129.066 10.248 128.738 9.248 128.082 8.56C127.426 7.856 126.53 7.504 125.394 7.504C124.242 7.504 123.322 7.864 122.634 8.584C121.962 9.304 121.626 10.352 121.626 11.728V19H119.442V5.848H121.626V7.72C122.058 7.048 122.642 6.528 123.378 6.16C124.13 5.792 124.954 5.608 125.85 5.608ZM146.793 11.92C146.793 12.336 146.769 12.776 146.721 13.24H136.209C136.289 14.536 136.729 15.552 137.529 16.288C138.345 17.008 139.329 17.368 140.481 17.368C141.425 17.368 142.209 17.152 142.833 16.72C143.473 16.272 143.921 15.68 144.177 14.944H146.529C146.177 16.208 145.473 17.24 144.417 18.04C143.361 18.824 142.049 19.216 140.481 19.216C139.233 19.216 138.113 18.936 137.121 18.376C136.145 17.816 135.377 17.024 134.817 16C134.257 14.96 133.977 13.76 133.977 12.4C133.977 11.04 134.249 9.848 134.793 8.824C135.337 7.8 136.097 7.016 137.073 6.472C138.065 5.912 139.201 5.632 140.481 5.632C141.729 5.632 142.833 5.904 143.793 6.448C144.753 6.992 145.489 7.744 146.001 8.704C146.529 9.648 146.793 10.72 146.793 11.92ZM144.537 11.464C144.537 10.632 144.353 9.92 143.985 9.328C143.617 8.72 143.113 8.264 142.473 7.96C141.849 7.64 141.153 7.48 140.385 7.48C139.281 7.48 138.337 7.832 137.553 8.536C136.785 9.24 136.345 10.216 136.233 11.464H144.537ZM165.492 5.608C166.516 5.608 167.428 5.824 168.228 6.256C169.028 6.672 169.66 7.304 170.124 8.152C170.588 9 170.82 10.032 170.82 11.248V19H168.66V11.56C168.66 10.248 168.332 9.248 167.676 8.56C167.036 7.856 166.164 7.504 165.06 7.504C163.924 7.504 163.02 7.872 162.348 8.608C161.676 9.328 161.34 10.376 161.34 11.752V19H159.18V11.56C159.18 10.248 158.852 9.248 158.196 8.56C157.556 7.856 156.684 7.504 155.58 7.504C154.444 7.504 153.54 7.872 152.868 8.608C152.196 9.328 151.86 10.376 151.86 11.752V19H149.676V5.848H151.86V7.744C152.292 7.056 152.868 6.528 153.588 6.16C154.324 5.792 155.132 5.608 156.012 5.608C157.116 5.608 158.092 5.856 158.94 6.352C159.788 6.848 160.42 7.576 160.836 8.536C161.204 7.608 161.812 6.888 162.66 6.376C163.508 5.864 164.452 5.608 165.492 5.608ZM173.587 12.376C173.587 11.032 173.859 9.856 174.403 8.848C174.947 7.824 175.691 7.032 176.635 6.472C177.595 5.912 178.659 5.632 179.827 5.632C180.979 5.632 181.979 5.88 182.827 6.376C183.675 6.872 184.307 7.496 184.723 8.248V5.848H186.931V19H184.723V16.552C184.291 17.32 183.643 17.96 182.779 18.472C181.931 18.968 180.939 19.216 179.803 19.216C178.635 19.216 177.579 18.928 176.635 18.352C175.691 17.776 174.947 16.968 174.403 15.928C173.859 14.888 173.587 13.704 173.587 12.376ZM184.723 12.4C184.723 11.408 184.523 10.544 184.123 9.808C183.723 9.072 183.179 8.512 182.491 8.128C181.819 7.728 181.075 7.528 180.259 7.528C179.443 7.528 178.699 7.72 178.027 8.104C177.355 8.488 176.819 9.048 176.419 9.784C176.019 10.52 175.819 11.384 175.819 12.376C175.819 13.384 176.019 14.264 176.419 15.016C176.819 15.752 177.355 16.32 178.027 16.72C178.699 17.104 179.443 17.296 180.259 17.296C181.075 17.296 181.819 17.104 182.491 16.72C183.179 16.32 183.723 15.752 184.123 15.016C184.523 14.264 184.723 13.392 184.723 12.4ZM191.317 19.144C190.901 19.144 190.549 19 190.261 18.712C189.973 18.424 189.829 18.072 189.829 17.656C189.829 17.24 189.973 16.888 190.261 16.6C190.549 16.312 190.901 16.168 191.317 16.168C191.717 16.168 192.053 16.312 192.325 16.6C192.613 16.888 192.757 17.24 192.757 17.656C192.757 18.072 192.613 18.424 192.325 18.712C192.053 19 191.717 19.144 191.317 19.144Z" fill="#E8E8E8"/>
</svg>
