<svg width="64" height="64" viewBox="0 0 64 64" fill="none" xmlns="http://www.w3.org/2000/svg">
<rect x="0.5" y="0.5" width="63" height="63" rx="31.5" stroke="#303030"/>
<path d="M32.0001 21.6154C29.7967 21.6154 27.6836 22.4469 26.1256 23.927C24.5677 25.4071 23.6924 27.4145 23.6924 29.5077V30.0828C24.0287 34.4071 27.807 37.8846 32.0001 42.3846C36.3782 37.6876 40.3078 34.1302 40.3078 29.5077C40.3078 27.4145 39.4325 25.4071 37.8745 23.927C36.3165 22.4469 34.2034 21.6154 32.0001 21.6154ZM32.0001 25.716C32.7908 25.716 33.5638 25.9388 34.2212 26.3563C34.8786 26.7737 35.3909 27.3671 35.6932 28.0612C35.9956 28.7553 36.0744 29.519 35.9197 30.2557C35.7651 30.9924 35.3838 31.669 34.8243 32.1998C34.2648 32.7306 33.5521 33.0918 32.7764 33.2378C32.0007 33.3837 31.1969 33.3077 30.4666 33.0195C29.7364 32.7313 29.1126 32.2438 28.6741 31.6187C28.2356 30.9935 28.0021 30.2589 28.0032 29.5077C28.0047 28.5016 28.4264 27.5372 29.1758 26.8262C29.9252 26.1153 30.941 25.716 32.0001 25.716Z" stroke="#818282" stroke-width="1.25" stroke-linecap="round" stroke-linejoin="round"/>
</svg>
