<svg width="14" height="13" viewBox="0 0 14 13" fill="none" xmlns="http://www.w3.org/2000/svg">
<path d="M1.0502 11.3137C1.0502 11.5789 1.15556 11.8333 1.34309 12.0208C1.53063 12.2083 1.78498 12.3137 2.0502 12.3137C2.31542 12.3137 2.56977 12.2083 2.75731 12.0208L12.6568 2.12132C12.8443 1.93378 12.9497 1.67943 12.9497 1.41421C12.9497 1.14899 12.8443 0.89464 12.6568 0.707104C12.4693 0.519568 12.2149 0.41421 11.9497 0.41421C11.6845 0.41421 11.4301 0.519567 11.2426 0.707104L1.34309 10.6066C1.15556 10.7941 1.0502 11.0485 1.0502 11.3137Z" fill="#141414"/>
<path d="M2.05029 0.414214C1.78508 0.414214 1.53072 0.51957 1.34319 0.707107C1.15565 0.894643 1.05029 1.149 1.05029 1.41421C1.05029 1.67943 1.15565 1.93378 1.34319 2.12132L11.2427 12.0208C11.4302 12.2084 11.6846 12.3137 11.9498 12.3137C12.215 12.3137 12.4694 12.2084 12.6569 12.0208C12.8444 11.8333 12.9498 11.5789 12.9498 11.3137C12.9498 11.0485 12.8444 10.7941 12.6569 10.6066L2.7574 0.707107C2.56986 0.51957 2.31551 0.414214 2.05029 0.414214Z" fill="#141414"/>
</svg>
