<svg width="12" height="12" viewBox="0 0 12 12" fill="none" xmlns="http://www.w3.org/2000/svg">
<path d="M9.7485 3.99452L6 7.64852L2.2515 3.99452C2.18453 3.9291 2.09462 3.89247 2.001 3.89247C1.90737 3.89247 1.81747 3.9291 1.7505 3.99452C1.71807 4.0263 1.69231 4.06422 1.67472 4.10607C1.65713 4.14793 1.64807 4.19287 1.64807 4.23827C1.64807 4.28367 1.65713 4.32862 1.67472 4.37047C1.69231 4.41232 1.71807 4.45025 1.7505 4.48202L5.73825 8.37002C5.80828 8.43828 5.9022 8.47649 6 8.47649C6.09779 8.47649 6.19172 8.43828 6.26175 8.37002L10.2495 4.48277C10.2822 4.45098 10.3081 4.41296 10.3258 4.37096C10.3436 4.32897 10.3527 4.28385 10.3527 4.23827C10.3527 4.19269 10.3436 4.14757 10.3258 4.10558C10.3081 4.06359 10.2822 4.02557 10.2495 3.99377C10.1825 3.92835 10.0926 3.89172 9.999 3.89172C9.90537 3.89172 9.81547 3.92835 9.7485 3.99377V3.99452Z" fill="#E8E8E8"/>
</svg>
