<svg width="12" height="12" viewBox="0 0 12 12" fill="none" xmlns="http://www.w3.org/2000/svg">
<path d="M1.22704 3.96983C1.36768 3.82923 1.55841 3.75024 1.75729 3.75024C1.95616 3.75024 2.14689 3.82923 2.28754 3.96983L6.00004 7.68233L9.71254 3.96983C9.85399 3.83322 10.0434 3.75762 10.2401 3.75933C10.4367 3.76104 10.6248 3.83991 10.7639 3.97897C10.903 4.11803 10.9818 4.30614 10.9835 4.50278C10.9853 4.69943 10.9097 4.88888 10.773 5.03033L6.53029 9.27308C6.38964 9.41369 6.19891 9.49267 6.00004 9.49267C5.80116 9.49267 5.61043 9.41369 5.46979 9.27308L1.22704 5.03033C1.08643 4.88969 1.00745 4.69896 1.00745 4.50008C1.00745 4.30121 1.08643 4.11048 1.22704 3.96983Z" fill="#E8E8E8"/>
</svg>
