<svg width="34" height="34" viewBox="0 0 34 34" fill="none" xmlns="http://www.w3.org/2000/svg">
<g filter="url(#filter0_d_74_5)">
<circle cx="17" cy="17" r="16" fill="#303030"/>
</g>
<g clip-path="url(#clip0_74_5)">
<path d="M20.7333 12.7333H21.8M13.8 9.53333H20.2C21.3316 9.53333 22.4168 9.98285 23.217 10.783C24.0171 11.5832 24.4667 12.6684 24.4667 13.8V20.2C24.4667 21.3316 24.0171 22.4168 23.217 23.217C22.4168 24.0171 21.3316 24.4667 20.2 24.4667H13.8C12.6684 24.4667 11.5832 24.0171 10.783 23.217C9.98285 22.4168 9.53333 21.3316 9.53333 20.2V13.8C9.53333 12.6684 9.98285 11.5832 10.783 10.783C11.5832 9.98285 12.6684 9.53333 13.8 9.53333ZM17 20.2C16.1513 20.2 15.3374 19.8629 14.7373 19.2627C14.1371 18.6626 13.8 17.8487 13.8 17C13.8 16.1513 14.1371 15.3374 14.7373 14.7373C15.3374 14.1371 16.1513 13.8 17 13.8C17.8487 13.8 18.6626 14.1371 19.2627 14.7373C19.8629 15.3374 20.2 16.1513 20.2 17C20.2 17.8487 19.8629 18.6626 19.2627 19.2627C18.6626 19.8629 17.8487 20.2 17 20.2Z" stroke="#818282"/>
</g>
<defs>
<filter id="filter0_d_74_5" x="0.9" y="0.9" width="32.2" height="32.2" filterUnits="userSpaceOnUse" color-interpolation-filters="sRGB">
<feFlood flood-opacity="0" result="BackgroundImageFix"/>
<feColorMatrix in="SourceAlpha" type="matrix" values="0 0 0 0 0 0 0 0 0 0 0 0 0 0 0 0 0 0 127 0" result="hardAlpha"/>
<feMorphology radius="0.1" operator="dilate" in="SourceAlpha" result="effect1_dropShadow_74_5"/>
<feOffset/>
<feComposite in2="hardAlpha" operator="out"/>
<feColorMatrix type="matrix" values="0 0 0 0 0.505882 0 0 0 0 0.509804 0 0 0 0 0.509804 0 0 0 1 0"/>
<feBlend mode="normal" in2="BackgroundImageFix" result="effect1_dropShadow_74_5"/>
<feBlend mode="normal" in="SourceGraphic" in2="effect1_dropShadow_74_5" result="shape"/>
</filter>
<clipPath id="clip0_74_5">
<rect width="16" height="16" fill="white" transform="translate(9 9)"/>
</clipPath>
</defs>
</svg>
