<svg width="64" height="64" viewBox="0 0 64 64" fill="none" xmlns="http://www.w3.org/2000/svg">
<rect x="0.5" y="0.5" width="63" height="63" rx="31.5" stroke="#303030"/>
<g clip-path="url(#clip0_187_143)">
<path d="M42.1053 44C42.6078 44 43.0897 43.8004 43.445 43.445C43.8004 43.0897 44 42.6078 44 42.1053V37.6842C44 37.1817 43.8004 36.6998 43.445 36.3444C43.0897 35.9891 42.6078 35.7895 42.1053 35.7895C40.6274 35.7895 39.1747 35.5621 37.7853 35.0947C37.4531 34.9899 37.0985 34.978 36.76 35.0604C36.4215 35.1428 36.1121 35.3163 35.8653 35.5621L34.0463 37.3811C30.9039 35.6662 28.3212 33.0835 26.6063 29.9411L28.4126 28.1347C28.9305 27.6421 29.12 26.9095 28.8926 26.2021C28.4379 24.8253 28.2105 23.3726 28.2105 21.8947C28.2105 21.3922 28.0109 20.9103 27.6556 20.555C27.3002 20.1996 26.8183 20 26.3158 20H21.8947C21.3922 20 20.9103 20.1996 20.555 20.555C20.1996 20.9103 20 21.3922 20 21.8947C20 34.0842 29.9158 44 42.1053 44ZM21.8947 21.2632H26.3158C26.4833 21.2632 26.6439 21.3297 26.7624 21.4481C26.8808 21.5666 26.9474 21.7272 26.9474 21.8947C26.9474 23.5116 27.2 25.0905 27.6926 26.5937C27.7558 26.7705 27.7432 27.0232 27.5411 27.2253L25.0526 29.7011C27.1368 33.7811 30.1937 36.8379 34.2863 38.9474L36.7495 36.4589C36.9263 36.2821 37.1663 36.2316 37.3937 36.2947C38.9095 36.8 40.4884 37.0526 42.1053 37.0526C42.2728 37.0526 42.4334 37.1192 42.5519 37.2376C42.6703 37.3561 42.7368 37.5167 42.7368 37.6842V42.1053C42.7368 42.2728 42.6703 42.4334 42.5519 42.5519C42.4334 42.6703 42.2728 42.7368 42.1053 42.7368C30.6105 42.7368 21.2632 33.3895 21.2632 21.8947C21.2632 21.7272 21.3297 21.5666 21.4481 21.4481C21.5666 21.3297 21.7272 21.2632 21.8947 21.2632Z" fill="#818282"/>
</g>
<defs>
<clipPath id="clip0_187_143">
<rect width="24" height="24" fill="white" transform="translate(20 20)"/>
</clipPath>
</defs>
</svg>
