<svg width="64" height="64" viewBox="0 0 64 64" fill="none" xmlns="http://www.w3.org/2000/svg">
<rect x="0.5" y="0.5" width="63" height="63" rx="31.5" stroke="#303030"/>
<path d="M32 36.9998C31.6183 36.9999 31.2449 36.8852 30.9262 36.6697C30.6074 36.4543 30.3574 36.1476 30.207 35.7878C29.8924 35.7116 29.5827 35.6154 29.2798 35.4998L29.2632 35.4938C28.3736 35.1513 27.5525 34.6449 26.8403 33.9997C25.8862 33.1364 25.1524 32.0468 24.703 30.8259C24.2536 29.605 24.1022 28.2899 24.2621 26.9952C24.4219 25.7005 24.8881 24.4656 25.62 23.3982C26.3519 22.3307 27.3273 21.4631 28.4612 20.8709C29.595 20.2788 30.8528 19.9802 32.125 20.001C33.3972 20.0219 34.6451 20.3616 35.7599 20.9907C36.8747 21.6197 37.8225 22.5188 38.5208 23.6098C39.219 24.7007 39.6465 25.9503 39.7659 27.2495C39.8039 27.6625 39.4734 27.9995 39.0688 27.9995C38.6651 27.9995 38.3424 27.6625 38.2956 27.2505C38.1667 26.1138 37.7475 25.0321 37.0803 24.1148C36.4132 23.1975 35.5218 22.4771 34.4961 22.0264C33.4705 21.5758 32.3471 21.4108 31.2394 21.5483C30.1317 21.6857 29.0791 22.1206 28.1878 22.8091C27.2965 23.4976 26.5983 24.4152 26.1636 25.4692C25.729 26.5232 25.5733 27.6763 25.7124 28.8117C25.8515 29.9472 26.2804 31.0249 26.9558 31.9359C27.6311 32.8468 28.529 33.5588 29.5586 33.9997L29.5976 34.0167C29.7926 34.0987 29.9928 34.171 30.1982 34.2337C30.386 33.7643 30.7408 33.3857 31.1906 33.1745C31.6404 32.9633 32.1516 32.9354 32.6207 33.0963C33.0899 33.2573 33.4818 33.5951 33.7172 34.0413C33.9526 34.4876 34.0139 35.0089 33.8886 35.4998C33.7805 35.9292 33.5363 36.3095 33.1944 36.5811C32.8526 36.8526 32.4324 36.9999 32 36.9998ZM25.175 35.4998H26.3148C25.7697 35.064 25.2733 34.5676 24.8347 34.0197C24.1227 34.1052 23.4661 34.456 22.9896 35.0054C22.5131 35.5548 22.2499 36.2645 22.25 36.9998V37.7148C22.25 41.4329 26.3548 44 32 44C37.6453 44 41.75 41.2919 41.75 37.7148V36.9998C41.75 36.2041 41.4418 35.441 40.8933 34.8784C40.3447 34.3158 39.6008 33.9997 38.825 33.9997H35.2711C35.4124 34.4858 35.449 34.9977 35.3784 35.4998H38.825L38.9664 35.5068C39.3281 35.5428 39.6638 35.7156 39.908 35.9917C40.1522 36.2677 40.2875 36.6271 40.2875 36.9998V37.7148L40.2826 37.8758C40.1461 40.3959 36.8029 42.5 32 42.5C27.0168 42.5 23.7125 40.3889 23.7125 37.7148V36.9998L23.7193 36.8548C23.7545 36.4838 23.923 36.1395 24.1921 35.889C24.4612 35.6385 24.8116 35.4997 25.175 35.4998ZM36.875 27.9995C36.8752 28.9053 36.6354 29.7942 36.1814 30.5711C35.7273 31.348 35.076 31.9838 34.2971 32.4107C33.6687 31.8243 32.8496 31.4994 32 31.4996C32.4481 31.4996 32.8919 31.4091 33.3059 31.2332C33.7199 31.0573 34.0961 30.7995 34.413 30.4745C34.7299 30.1495 34.9812 29.7636 35.1527 29.339C35.3242 28.9143 35.4125 28.4592 35.4125 27.9995C35.4125 27.5399 35.3242 27.0848 35.1527 26.6601C34.9812 26.2354 34.7299 25.8496 34.413 25.5246C34.0961 25.1996 33.7199 24.9418 33.3059 24.7659C32.8919 24.59 32.4481 24.4994 32 24.4994C31.0949 24.4994 30.227 24.8682 29.587 25.5246C28.947 26.181 28.5875 27.0712 28.5875 27.9995C28.5875 28.9278 28.947 29.8181 29.587 30.4745C30.227 31.1309 31.0949 31.4996 32 31.4996C31.1147 31.4996 30.3094 31.8456 29.7039 32.4117C28.9253 31.9852 28.2743 31.3499 27.8202 30.5736C27.4336 29.913 27.201 29.1696 27.1407 28.4016C27.0804 27.6335 27.194 26.8616 27.4726 26.146C27.7512 25.4305 28.1872 24.7906 28.7467 24.2764C29.3062 23.7622 29.974 23.3876 30.6979 23.1818C31.4219 22.976 32.1824 22.9446 32.9201 23.09C33.6578 23.2354 34.3528 23.5538 34.9508 24.0202C35.5488 24.4865 36.0336 25.0884 36.3674 25.7787C36.7012 26.4689 36.8749 27.229 36.875 27.9995Z" fill="#818282"/>
</svg>
