<svg width="64" height="64" viewBox="0 0 64 64" fill="none" xmlns="http://www.w3.org/2000/svg">
<rect x="0.5" y="0.5" width="63" height="63" rx="31.5" stroke="#303030"/>
<path d="M33.7159 41.3908H31.625C28.5974 41.3908 26.028 40.3531 23.9168 38.2777C21.8056 36.2023 20.75 33.6768 20.75 30.7011C20.75 27.7254 21.8051 25.198 23.9154 23.1188C26.0256 21.0396 28.5945 20 31.6221 20C33.1359 20 34.5521 20.2786 35.8706 20.8357C37.1891 21.3918 38.3409 22.1543 39.326 23.1231C40.311 24.0918 41.0863 25.2227 41.6518 26.5156C42.2173 27.8086 42.5 29.2018 42.5 30.6954C42.5 33.4239 41.7876 35.9262 40.3627 38.2021C38.9378 40.4781 37.1239 42.37 34.9208 43.8778C34.7913 43.951 34.6608 43.9914 34.5294 43.9991C34.3998 44.0057 34.2756 43.9772 34.1567 43.9135C34.0378 43.8498 33.9431 43.7685 33.8725 43.6696C33.8019 43.5708 33.7638 43.4457 33.7579 43.2946L33.7159 41.3908ZM35.25 41.8899C36.9658 40.4639 38.3617 38.7944 39.4376 36.8816C40.5135 34.9688 41.051 32.9067 41.05 30.6954C41.05 28.1047 40.1375 25.9124 38.3124 24.1184C36.4873 22.3245 34.2582 21.427 31.625 21.4261C28.9918 21.4251 26.7627 22.3226 24.9376 24.1184C23.1125 25.9143 22.2 28.1066 22.2 30.6954C22.2 33.2842 23.1125 35.477 24.9376 37.2738C26.7627 39.0706 28.9918 39.9676 31.625 39.9647H35.25V41.8899ZM31.6772 37.9269C31.973 37.9269 32.2243 37.8242 32.4312 37.6189C32.6381 37.4135 32.741 37.1649 32.7401 36.8731C32.7391 36.5812 32.6347 36.334 32.4269 36.1315C32.219 35.929 31.9662 35.8273 31.6685 35.8263C31.3708 35.8254 31.1194 35.9285 30.9145 36.1358C30.7096 36.343 30.6061 36.5917 30.6042 36.8816C30.6023 37.1716 30.7067 37.4188 30.9174 37.6232C31.1281 37.8276 31.3814 37.9288 31.6772 37.9269ZM28.6655 27.4183C28.8337 27.482 29.0015 27.4777 29.1687 27.4055C29.3359 27.3332 29.4727 27.2168 29.5791 27.0561C29.7772 26.7348 30.0585 26.4781 30.4229 26.286C30.7874 26.0959 31.2069 26.0008 31.6816 26.0008C32.393 26.0008 32.9716 26.1838 33.4172 26.5499C33.8628 26.9159 34.0852 27.4112 34.0842 28.0358C34.0842 28.4218 33.989 28.7831 33.7985 29.1196C33.6081 29.4552 33.2833 29.8488 32.8242 30.3004C32.2016 30.8965 31.7545 31.408 31.4829 31.8348C31.2113 32.2617 31.0759 32.6762 31.0769 33.0783C31.0769 33.2656 31.1388 33.4253 31.2625 33.5575C31.3862 33.6896 31.5361 33.7562 31.712 33.7571C31.8879 33.7581 32.0353 33.6915 32.1543 33.5575C32.2732 33.4263 32.3437 33.2642 32.3659 33.0712C32.4133 32.7765 32.5752 32.449 32.8517 32.0887C33.1282 31.7283 33.4646 31.3538 33.8609 30.9649C34.4061 30.4287 34.7962 29.9234 35.0311 29.449C35.266 28.9737 35.3834 28.4988 35.3834 28.0244C35.3834 27.0461 35.0402 26.2594 34.3539 25.6643C33.6676 25.0691 32.7951 24.7716 31.7366 24.7716C31.0252 24.7716 30.3698 24.9422 29.7704 25.2835C29.1711 25.6248 28.7206 26.0317 28.419 26.5042C28.3127 26.6972 28.2813 26.8817 28.3248 27.0575C28.3683 27.2334 28.4819 27.3537 28.6655 27.4183Z" fill="#818282"/>
</svg>
