<svg width="16" height="16" viewBox="0 0 16 16" fill="none" xmlns="http://www.w3.org/2000/svg">
<g clip-path="url(#clip0_5_3)">
<path d="M14.5813 0.603745H1.42001C0.969207 0.603745 0.60376 0.969192 0.60376 1.41999V14.5812C0.60376 15.032 0.969207 15.3975 1.42001 15.3975H14.5813C15.0321 15.3975 15.3975 15.032 15.3975 14.5812V1.41999C15.3975 0.969192 15.0321 0.603745 14.5813 0.603745Z" fill="#3D5A98"/>
<path d="M10.81 15.3963V9.6675H12.7325L13.02 7.435H10.81V6.01C10.81 5.36375 10.99 4.9225 11.9163 4.9225H13.0988V2.9225C12.5261 2.86293 11.9507 2.83456 11.375 2.8375C9.67251 2.8375 8.50001 3.875 8.50001 5.78875V7.435H6.57751V9.6675H8.50001V15.3963H10.81Z" fill="white"/>
</g>
<defs>
<clipPath id="clip0_5_3">
<rect width="16" height="16" fill="white"/>
</clipPath>
</defs>
</svg>
